<?xml version="1.0" standalone="no"?>
<!DOCTYPE svg PUBLIC "-//W3C//DTD SVG 20010904//EN"
 "http://www.w3.org/TR/2001/REC-SVG-20010904/DTD/svg10.dtd">
<svg version="1.0" xmlns="http://www.w3.org/2000/svg"
 width="1024.000000pt" height="1024.000000pt" viewBox="0 0 1024.000000 1024.000000"
 preserveAspectRatio="xMidYMid meet">
<metadata>
Created by potrace 1.14, written by Peter Selinger 2001-2017
</metadata>
<g transform="translate(0.000000,1024.000000) scale(0.100000,-0.100000)"
fill="#000000" stroke="none">
<path d="M4885 10234 c-1851 -89 -3507 -1165 -4338 -2819 -287 -572 -458
-1166 -523 -1820 -24 -233 -24 -717 0 -950 87 -871 369 -1661 849 -2379 364
-544 849 -1029 1393 -1393 718 -480 1508 -762 2379 -849 233 -24 717 -24 950
0 871 87 1661 369 2379 849 544 364 1029 849 1393 1393 480 718 762 1508 849
2379 24 233 24 717 0 950 -87 871 -369 1661 -849 2379 -296 442 -687 862
-1108 1188 -766 594 -1690 960 -2654 1053 -161 15 -570 26 -720 19z m655 -220
c944 -80 1854 -437 2604 -1022 291 -226 620 -555 848 -848 583 -746 935 -1642
1023 -2598 20 -221 20 -631 0 -852 -98 -1064 -524 -2052 -1221 -2834 -61 -69
-121 -134 -133 -144 l-21 -19 0 111 0 112 -780 0 -780 0 1 337 c1 363 4 392
55 459 43 58 112 87 284 118 14 3 36 8 50 11 14 3 36 7 50 10 14 2 126 25 250
50 124 25 239 48 255 51 17 2 41 7 55 10 14 3 36 8 50 10 126 23 264 82 337
145 48 40 113 143 142 222 l26 72 0 335 c0 354 -2 380 -38 469 -65 162 -175
257 -358 312 -72 22 -90 23 -657 27 l-582 3 -93 -72 c-50 -40 -94 -74 -96 -76
-2 -1 -5 -43 -5 -93 l-1 -89 645 -3 c720 -4 692 -1 765 -75 69 -68 77 -117 73
-413 -3 -224 -5 -249 -24 -290 -27 -57 -67 -98 -121 -121 -32 -14 -229 -57
-476 -105 -12 -2 -80 -16 -152 -30 -71 -14 -141 -28 -155 -31 -13 -2 -56 -11
-95 -19 -38 -9 -81 -18 -95 -20 -48 -9 -96 -27 -160 -60 -147 -76 -237 -203
-270 -379 -8 -38 -18 -76 -24 -84 -8 -11 -8 -13 0 -8 6 3 11 0 11 -8 0 -8 -4
-12 -9 -9 -4 3 -8 -218 -8 -490 l0 -496 911 0 c848 0 910 -1 898 -17 -8 -9
-70 -66 -139 -127 -701 -625 -1563 -1031 -2505 -1180 -484 -77 -1026 -77
-1510 0 -918 146 -1794 552 -2465 1143 -889 783 -1451 1799 -1634 2956 -77
484 -77 1026 0 1510 146 918 552 1794 1143 2465 783 889 1801 1451 2956 1634
392 62 769 75 1175 40z"/>
<path d="M5818 7995 c-2 -1 -23 -5 -48 -8 -189 -23 -370 -101 -479 -209 -120
-119 -178 -240 -228 -478 -4 -19 -9 -891 -10 -1937 l-3 -1903 245 0 245 0 0
308 c0 169 1 790 1 1380 l0 1072 584 0 585 0 0 215 0 215 -585 0 -586 0 1 277
c1 305 10 379 57 465 30 56 75 98 134 129 41 21 49 23 124 39 22 5 237 9 478
10 l437 0 0 123 0 122 -122 93 -123 93 -352 -2 c-194 -1 -353 -3 -355 -4z"/>
<path d="M2125 6634 c-302 -49 -504 -191 -607 -429 -15 -33 -34 -86 -43 -118
-43 -150 -44 -182 -41 -1057 1 -459 6 -855 11 -880 53 -313 218 -528 475 -622
86 -32 160 -47 295 -63 11 -1 323 -3 693 -4 l674 -1 -5 -247 c-2 -137 -6 -255
-9 -263 -3 -8 -8 -28 -13 -44 -34 -122 -153 -217 -300 -240 -16 -2 -379 -5
-805 -5 l-775 -1 0 -122 0 -123 125 -93 125 -93 705 4 c388 2 725 8 750 12 60
10 206 52 250 72 66 31 145 85 198 136 121 117 183 244 222 457 17 89 18 218
19 1918 l1 1822 -932 -1 c-711 -2 -952 -5 -1013 -15z m1455 -1579 l0 -1166
-677 3 c-613 3 -683 5 -730 21 -113 38 -195 122 -231 236 -16 51 -17 125 -17
896 0 462 3 858 8 879 28 144 132 250 277 282 40 9 237 12 713 13 l657 1 0
-1165z"/>
</g>
</svg>
